<svg width="16" height="17" viewBox="0 0 16 17" fill="none" xmlns="http://www.w3.org/2000/svg">
<g clip-path="url(#clip0_1_3579)">
<path fill-rule="evenodd" clip-rule="evenodd" d="M8.47136 11.397C8.34634 11.522 8.1768 11.5922 8.00002 11.5922C7.82325 11.5922 7.65371 11.522 7.52869 11.397L3.75736 7.62568C3.69369 7.56419 3.6429 7.49062 3.60796 7.40929C3.57302 7.32795 3.55463 7.24047 3.55386 7.15195C3.55309 7.06343 3.56996 6.97565 3.60348 6.89372C3.637 6.81178 3.6865 6.73735 3.7491 6.67475C3.81169 6.61216 3.88612 6.56266 3.96806 6.52914C4.04999 6.49562 4.13777 6.47875 4.22629 6.47952C4.31481 6.48029 4.40229 6.49868 4.48363 6.53362C4.56496 6.56856 4.63853 6.61934 4.70003 6.68302L8.00002 9.98302L11.3 6.68302C11.4258 6.56158 11.5942 6.49438 11.769 6.4959C11.9438 6.49742 12.111 6.56753 12.2346 6.69114C12.3582 6.81474 12.4283 6.98195 12.4298 7.15675C12.4313 7.33155 12.3641 7.49995 12.2427 7.62568L8.47136 11.397Z" fill="#404040"/>
<path d="M4.66663 7.59253L7.99996 10.9259L11.3333 7.59253" stroke="#404040" stroke-width="0.666667" stroke-linecap="round" stroke-linejoin="round"/>
</g>
<defs>
<clipPath id="clip0_1_3579">
<rect width="16" height="16" fill="white" transform="translate(0 0.925781)"/>
</clipPath>
</defs>
</svg>
