<svg width="10" height="11" viewBox="0 0 10 11" fill="none" xmlns="http://www.w3.org/2000/svg">
<g clip-path="url(#clip0_1_3602)">
<path d="M5 0.425781C4.01109 0.425781 3.0444 0.719026 2.22215 1.26843C1.3999 1.81784 0.759043 2.59873 0.380605 3.51236C0.00216642 4.42599 -0.0968502 5.43133 0.0960758 6.40123C0.289002 7.37114 0.765206 8.26205 1.46447 8.96131C2.16373 9.66058 3.05465 10.1368 4.02455 10.3297C4.99445 10.5226 5.99979 10.4236 6.91342 10.0452C7.82705 9.66674 8.60794 9.02588 9.15735 8.20363C9.70676 7.38138 10 6.41469 10 5.42578C9.9986 4.10013 9.47137 2.82917 8.53399 1.89179C7.59661 0.954415 6.32565 0.427181 5 0.425781ZM4.80769 2.73347C4.9218 2.73347 5.03334 2.76731 5.12821 2.8307C5.22309 2.8941 5.29703 2.9842 5.3407 3.08962C5.38437 3.19504 5.39579 3.31104 5.37353 3.42295C5.35127 3.53486 5.29632 3.63766 5.21564 3.71834C5.13496 3.79903 5.03216 3.85397 4.92025 3.87623C4.80833 3.89849 4.69233 3.88707 4.58691 3.8434C4.4815 3.79974 4.39139 3.72579 4.328 3.63092C4.26461 3.53604 4.23077 3.4245 4.23077 3.3104C4.23077 3.15739 4.29155 3.01064 4.39975 2.90245C4.50794 2.79426 4.65468 2.73347 4.80769 2.73347ZM5.38462 8.11809C5.1806 8.11809 4.98495 8.03704 4.84069 7.89278C4.69643 7.74853 4.61539 7.55287 4.61539 7.34886V5.42578C4.51338 5.42578 4.41555 5.38526 4.34342 5.31313C4.27129 5.241 4.23077 5.14317 4.23077 5.04116C4.23077 4.93916 4.27129 4.84133 4.34342 4.7692C4.41555 4.69707 4.51338 4.65655 4.61539 4.65655C4.8194 4.65655 5.01506 4.73759 5.15931 4.88185C5.30357 5.02611 5.38462 5.22177 5.38462 5.42578V7.34886C5.48662 7.34886 5.58445 7.38938 5.65658 7.46151C5.72871 7.53364 5.76923 7.63147 5.76923 7.73347C5.76923 7.83548 5.72871 7.93331 5.65658 8.00544C5.58445 8.07757 5.48662 8.11809 5.38462 8.11809Z" fill="#D8D8D8"/>
</g>
<defs>
<clipPath id="clip0_1_3602">
<rect width="10" height="10" fill="white" transform="translate(0 0.425781)"/>
</clipPath>
</defs>
</svg>
